<svg xmlns="http://www.w3.org/2000/svg" viewBox="0 0 300 400" width="300mm" height="400mm">
<style>
  .kickp{font-family:'Special Elite';font-size:6.2px;letter-spacing:1.2px;fill:#1e3a5f}
  .t1p{font-family:'Oswald';font-weight:700;font-size:31px;letter-spacing:1px;fill:#1e3a5f}
  .t2p{font-family:'Oswald';font-weight:700;font-size:46px;letter-spacing:3px;fill:#a93a2c}
  .ribp{fill:#a93a2c} .ribtp{font-family:'Oswald';font-weight:600;font-size:7.2px;letter-spacing:1.6px;fill:#d9cdb0}
  .landp{fill:none;stroke:#1e3a5f;stroke-width:.55;stroke-linejoin:round}
  .route-casep{fill:none;stroke:#d9cdb0;stroke-width:2.6;stroke-linejoin:round}
  .routep{fill:none;stroke:#a93a2c;stroke-width:1.3;stroke-dasharray:2.4 1.8;stroke-linejoin:round}
  .prp{fill:#a93a2c;stroke:#d9cdb0;stroke-width:.7} .ptp{font-family:'Oswald';font-weight:600;font-size:3.6px;fill:#d9cdb0}
  .seap{font-family:'Nunito Sans';font-style:italic;font-size:4.2px;letter-spacing:1.4px;fill:#1e3a5f;opacity:.75}
  .nump{font-family:'Oswald';font-weight:700;font-size:6.4px;fill:#a93a2c}
  .hubp{font-family:'Oswald';font-weight:600;font-size:6.4px;letter-spacing:.4px;fill:#1e3a5f}
  .dtp{font-family:'Special Elite';font-size:5px;fill:#a93a2c}
  .footp{font-family:'Special Elite';font-size:5.6px;letter-spacing:1.2px;fill:#1e3a5f}
  .rulep{stroke:#1e3a5f;stroke-width:.4;stroke-dasharray:1.5 1.5}
</style>

<text x="150" y="14" text-anchor="middle" class="kickp">THE VAN TRAMPERS PRESENT</text>
<text x="150" y="45" text-anchor="middle" class="t1p">SOUTH ISLAND</text>
<text x="150" y="89" text-anchor="middle" class="t2p">SAFARI</text>
<polygon points="48,96 252,96 258,103 252,110 48,110 42,103" class="ribp"/>
<text x="150" y="105.6" text-anchor="middle" class="ribtp">1 FEB – 13 MAR 2027 • 15 HUBS • 40 NIGHTS</text>
<g transform="translate(64.0,115)">
  <text x="8" y="22" class="seap">TASMAN SEA</text>
  <text x="118" y="132" class="seap">PACIFIC OCEAN</text>
  <polygon points="130.2,92.6 129.8,89.4 129.8,93.4 127.8,93.1 125.9,91.5 117.5,92.6 104.3,99.4 98.5,104.2 96.9,106.1 97.1,108.0 95.3,111.8 95.3,118.9 95.3,120.0 94.9,121.3 94.9,121.6 95.1,120.8 94.9,121.3 94.7,121.3 90.0,120.2 94.9,121.6 89.3,129.7 88.7,135.9 86.3,139.7 85.5,139.4 85.7,139.7 85.4,140.5 85.4,140.0 84.8,140.0 84.8,140.3 85.2,140.0 85.4,140.5 85.5,140.5 84.2,143.0 83.6,142.7 83.8,143.5 85.0,143.2 86.5,144.0 86.5,144.6 84.8,144.9 82.4,147.0 84.2,146.8 84.2,146.2 85.2,145.9 85.0,145.4 85.5,145.7 85.5,145.1 86.5,144.9 86.7,144.0 86.7,145.9 85.7,146.2 87.1,146.2 87.1,146.8 85.7,147.0 85.4,146.2 85.4,147.6 78.1,149.2 75.8,154.3 68.7,159.5 68.9,162.5 64.2,166.0 62.4,165.4 61.5,166.8 58.1,167.1 56.8,168.1 55.6,167.9 55.8,167.9 55.8,167.3 56.2,167.1 55.4,166.5 55.4,167.6 55.6,167.6 54.0,168.4 53.4,167.6 52.9,168.7 49.9,168.1 49.5,166.8 48.5,165.4 47.8,165.7 48.9,166.0 46.6,165.7 41.7,166.8 40.1,166.3 43.5,166.0 40.7,165.7 40.1,164.9 39.2,165.2 40.3,166.8 39.7,167.3 37.6,164.4 39.0,164.1 38.8,164.9 40.7,163.3 39.9,161.6 38.6,163.8 35.2,159.5 33.7,160.0 34.1,160.8 31.5,160.0 30.9,160.8 30.0,160.3 29.0,160.8 27.2,159.2 27.8,157.3 23.9,154.6 21.5,154.3 20.4,157.0 18.0,157.3 7.0,155.7 6.3,154.1 8.0,153.3 9.4,151.6 9.2,150.3 12.1,148.1 9.2,149.7 8.6,150.8 9.2,151.6 8.6,151.4 8.0,152.4 8.2,150.8 6.9,152.4 5.1,152.2 6.3,150.0 9.2,149.5 6.9,148.9 8.0,146.5 5.9,149.5 2.9,150.3 2.9,145.1 11.0,144.0 13.3,142.7 12.7,142.2 12.5,142.7 10.2,142.2 8.4,143.0 8.8,141.3 13.1,139.4 8.4,141.1 8.2,139.4 11.2,138.1 13.5,138.4 11.4,137.8 13.9,136.5 7.2,138.9 9.0,134.0 11.9,134.8 11.0,133.5 10.8,134.3 9.2,133.5 10.6,130.8 12.7,131.9 11.7,132.4 12.9,131.9 14.3,132.7 14.1,134.3 12.1,134.8 14.1,134.3 14.5,132.7 16.1,134.8 14.9,137.0 16.2,135.1 16.8,135.9 15.3,132.9 13.9,131.9 16.1,130.8 17.4,131.9 16.4,130.8 17.0,130.0 13.9,130.8 13.1,127.0 14.3,126.2 15.7,128.3 16.6,128.1 14.3,125.9 15.3,124.6 17.0,127.3 16.4,125.9 18.0,126.2 15.9,125.1 16.1,123.2 19.8,124.6 16.4,122.9 20.2,118.9 20.8,121.8 21.5,122.1 21.1,123.2 22.3,122.7 20.8,118.3 23.3,117.2 24.3,117.8 23.3,119.1 24.1,120.0 23.5,119.1 24.5,117.8 23.3,116.4 25.3,116.2 26.0,117.2 24.9,114.8 25.6,114.0 26.6,114.5 26.0,113.5 28.4,111.8 31.9,114.5 31.5,112.9 29.8,112.4 29.8,109.7 33.1,106.4 33.3,105.1 35.2,105.1 35.6,104.0 34.3,103.2 38.2,100.2 40.5,96.4 45.4,95.0 46.0,96.1 49.3,95.3 57.0,88.5 66.0,84.2 68.3,80.4 72.0,78.8 77.5,72.0 84.0,69.0 89.3,64.4 94.0,58.2 97.5,50.6 98.5,44.9 100.8,39.0 101.0,35.2 106.1,34.4 108.6,32.0 113.0,25.5 113.7,21.9 113.3,12.7 114.1,10.8 122.0,3.5 121.8,5.1 122.5,4.3 123.1,4.6 122.9,3.8 123.9,4.1 123.9,2.7 122.3,3.2 124.9,1.4 131.9,3.0 125.9,1.9 124.9,5.7 124.3,5.7 124.9,7.6 128.0,10.6 131.2,8.9 131.2,11.4 132.3,11.1 132.5,13.8 131.0,15.4 131.9,18.4 131.2,19.0 133.3,21.7 132.7,22.5 134.9,23.8 139.2,18.7 139.6,19.8 140.2,19.5 142.7,16.2 143.3,17.6 144.3,17.9 144.1,17.1 146.0,16.2 144.3,15.7 146.8,14.4 147.4,12.7 147.8,14.6 150.3,11.9 151.1,12.5 150.7,13.5 150.1,12.5 150.0,14.1 149.0,14.1 149.4,14.4 148.0,15.4 147.0,15.4 147.4,14.6 146.2,15.4 147.0,15.7 146.0,18.1 147.4,16.2 149.8,16.5 146.4,19.0 146.6,19.8 147.8,19.0 148.2,20.0 147.8,21.4 145.8,21.9 146.2,22.7 146.4,21.9 147.8,22.7 147.0,21.9 149.4,20.8 148.0,20.8 153.1,19.5 151.7,19.2 148.2,20.6 148.8,19.0 148.2,18.7 149.4,17.1 150.3,17.1 150.1,19.0 150.5,17.6 151.7,17.9 150.9,16.5 151.7,15.4 150.1,16.5 150.3,15.7 149.4,16.0 150.7,14.1 152.7,16.2 152.7,14.6 153.5,15.4 153.7,14.1 154.3,15.2 155.2,14.6 154.1,16.0 155.0,16.8 157.0,14.6 155.0,18.7 154.3,17.3 153.7,17.9 154.6,19.8 154.1,20.3 153.7,19.5 153.9,20.6 153.3,20.0 152.3,21.1 151.3,20.6 151.1,21.4 150.7,20.8 150.3,21.7 150.1,20.8 150.1,21.7 149.0,22.5 150.9,21.9 150.9,22.7 153.7,21.1 153.3,21.9 154.6,22.5 154.5,21.7 155.6,21.9 157.0,20.6 155.4,23.6 153.1,24.4 154.5,22.7 152.9,23.0 151.3,26.8 151.9,29.8 153.3,29.8 151.9,28.4 153.7,30.1 154.3,34.1 156.2,34.9 149.8,43.6 149.6,46.6 144.9,51.7 145.1,53.6 143.9,53.3 141.7,54.7 137.4,65.8 132.7,70.4 127.6,72.6 125.5,76.1 126.3,84.2 125.9,83.4 125.3,83.9 127.4,85.0 124.3,85.8 124.5,87.2 127.8,85.3 127.6,86.9 128.4,85.3 129.4,85.8 129.0,87.7 129.8,85.8 130.8,86.1 132.1,86.6 133.7,89.4 132.7,92.1 130.8,93.1 130.2,92.6" class="landp"/><polygon points="147.0,10.3 147.4,8.4 148.2,7.6 148.2,9.7 148.6,8.9 148.8,9.5 149.4,8.7 148.4,8.7 150.0,6.5 149.0,11.4 146.2,13.3 146.4,10.3 147.6,11.1 147.0,10.3" class="landp"/><polygon points="5.7,143.8 4.9,140.8 2.9,143.2 2.9,142.7 4.7,140.3 4.9,140.8 5.9,139.4 7.4,139.4 8.2,143.0 7.0,143.5 6.9,142.7 5.7,143.8" class="landp"/><polygon points="34.5,176.0 35.8,176.3 34.6,177.1 36.0,177.1 37.2,175.5 36.8,176.5 37.8,177.9 37.4,179.2 36.4,178.4 36.2,179.2 37.6,180.1 36.0,179.5 36.2,180.6 33.1,180.3 29.8,182.5 27.4,181.4 26.8,182.5 24.5,183.6 26.4,183.3 26.4,184.4 22.5,184.9 22.9,183.3 25.1,182.0 24.7,179.8 25.8,178.4 27.6,178.7 26.8,176.8 28.8,175.2 27.4,171.9 27.8,169.5 30.7,168.7 32.9,169.8 33.3,171.7 36.4,174.6 34.3,175.2 33.3,173.8 31.5,176.8 33.5,175.2 34.5,176.0" class="landp"/>
  <polyline points="109.0,45.1 109.6,41.8 110.8,38.0 106.9,36.6 103.9,35.5 103.8,35.3 106.5,34.4 107.7,34.9 106.5,34.4 103.8,35.3 100.6,39.3 99.3,42.5 98.6,44.9 97.3,49.6 96.1,54.2 93.4,58.8 91.4,61.4 95.0,64.7 91.4,61.4 95.5,59.0 99.8,62.4 103.0,64.4 103.0,67.5 103.9,68.6 105.5,69.7 106.8,69.9 107.2,70.0 107.4,69.1 106.6,68.7 107.4,69.1 107.2,70.0 106.8,69.9 107.3,71.5 105.7,74.5 110.1,78.0 112.0,79.5 115.4,77.1 112.0,79.5 110.2,81.8 105.7,80.4 102.4,78.9 106.7,81.8 104.7,83.4 104.7,86.0 99.7,88.2 97.9,87.7 95.9,87.2 94.0,87.5 95.9,87.2 97.9,87.7 99.7,88.2 100.1,91.5 97.9,95.9 96.8,98.7" class="route-casep"/>
  <polyline points="109.0,45.1 109.6,41.8 110.8,38.0 106.9,36.6 103.9,35.5 103.8,35.3 106.5,34.4 107.7,34.9 106.5,34.4 103.8,35.3 100.6,39.3 99.3,42.5 98.6,44.9 97.3,49.6 96.1,54.2 93.4,58.8 91.4,61.4 95.0,64.7 91.4,61.4 95.5,59.0 99.8,62.4 103.0,64.4 103.0,67.5 103.9,68.6 105.5,69.7 106.8,69.9 107.2,70.0 107.4,69.1 106.6,68.7 107.4,69.1 107.2,70.0 106.8,69.9 107.3,71.5 105.7,74.5 110.1,78.0 112.0,79.5 115.4,77.1 112.0,79.5 110.2,81.8 105.7,80.4 102.4,78.9 106.7,81.8 104.7,83.4 104.7,86.0 99.7,88.2 97.9,87.7 95.9,87.2 94.0,87.5 95.9,87.2 97.9,87.7 99.7,88.2 100.1,91.5 97.9,95.9 96.8,98.7" class="routep"/>
  <g><rect x="105.9" y="42.0" width="6.2" height="6.2" rx="3.1" class="prp"/><text x="109.0" y="46.4" text-anchor="middle" class="ptp">1</text></g><g><rect x="106.5" y="31.1" width="6.2" height="6.2" rx="3.1" class="prp"/><text x="109.6" y="35.5" text-anchor="middle" class="ptp">2</text></g><g><rect x="98.8" y="32.3" width="6.2" height="6.2" rx="3.1" class="prp"/><text x="101.9" y="36.7" text-anchor="middle" class="ptp">3</text></g><g><rect x="96.2" y="40.0" width="6.2" height="6.2" rx="3.1" class="prp"/><text x="99.3" y="44.4" text-anchor="middle" class="ptp">4</text></g><g><rect x="93.0" y="51.1" width="6.2" height="6.2" rx="3.1" class="prp"/><text x="96.1" y="55.5" text-anchor="middle" class="ptp">5</text></g><g><rect x="91.3" y="61.6" width="6.2" height="6.2" rx="3.1" class="prp"/><text x="94.4" y="66.0" text-anchor="middle" class="ptp">6</text></g><g><rect x="99.0" y="64.4" width="6.2" height="6.2" rx="3.1" class="prp"/><text x="102.1" y="68.8" text-anchor="middle" class="ptp">7</text></g><g><rect x="106.7" y="67.4" width="9.2" height="6.2" rx="3.1" class="prp"/><text x="111.3" y="71.8" text-anchor="middle" class="ptp">8–9</text></g><g><rect x="112.3" y="75.1" width="6.2" height="6.2" rx="3.1" class="prp"/><text x="115.4" y="79.5" text-anchor="middle" class="ptp">10</text></g><g><rect x="99.3" y="75.3" width="6.2" height="6.2" rx="3.1" class="prp"/><text x="102.4" y="79.7" text-anchor="middle" class="ptp">11</text></g><g><rect x="104.3" y="83.0" width="6.2" height="6.2" rx="3.1" class="prp"/><text x="107.4" y="87.4" text-anchor="middle" class="ptp">12</text></g><g><rect x="96.6" y="85.1" width="6.2" height="6.2" rx="3.1" class="prp"/><text x="99.7" y="89.5" text-anchor="middle" class="ptp">13</text></g><g><rect x="88.9" y="84.4" width="6.2" height="6.2" rx="3.1" class="prp"/><text x="92.0" y="88.8" text-anchor="middle" class="ptp">14</text></g><g><rect x="93.7" y="95.6" width="6.2" height="6.2" rx="3.1" class="prp"/><text x="96.8" y="100.0" text-anchor="middle" class="ptp">15</text></g>
</g>
<line x1="22" y1="296" x2="278" y2="296" class="rulep"/>
<text x="22" y="306" class="nump">01</text><text x="34" y="306" class="hubp">REEFTON</text><text x="142" y="306" text-anchor="end" class="dtp">FEB 1–3</text><text x="22" y="316" class="nump">02</text><text x="34" y="316" class="hubp">DENNISTON</text><text x="142" y="316" text-anchor="end" class="dtp">FEB 4–5</text><text x="22" y="326" class="nump">03</text><text x="34" y="326" class="hubp">WESTPORT</text><text x="142" y="326" text-anchor="end" class="dtp">FEB 6–7</text><text x="22" y="336" class="nump">04</text><text x="34" y="336" class="hubp">FOX RIVER</text><text x="142" y="336" text-anchor="end" class="dtp">FEB 8–9</text><text x="22" y="346" class="nump">05</text><text x="34" y="346" class="hubp">GREYMOUTH</text><text x="142" y="346" text-anchor="end" class="dtp">FEB 10–11</text><text x="22" y="356" class="nump">06</text><text x="34" y="356" class="hubp">LAKE KANIERE</text><text x="142" y="356" text-anchor="end" class="dtp">FEB 12–13</text><text x="22" y="366" class="nump">07</text><text x="34" y="366" class="hubp">ARTHUR'S PASS</text><text x="142" y="366" text-anchor="end" class="dtp">FEB 14–15</text><text x="22" y="376" class="nump">08</text><text x="34" y="376" class="hubp">HAWDON VALLEY</text><text x="142" y="376" text-anchor="end" class="dtp">FEB 16–19</text><text x="158" y="306" class="nump">09</text><text x="170" y="306" class="hubp">CASS</text><text x="278" y="306" text-anchor="end" class="dtp">FEB 20</text><text x="158" y="316" class="nump">10</text><text x="170" y="316" class="hubp">OXFORD</text><text x="278" y="316" text-anchor="end" class="dtp">FEB 21–27</text><text x="158" y="326" class="nump">11</text><text x="170" y="326" class="hubp">LAKE COLERIDGE</text><text x="278" y="326" text-anchor="end" class="dtp">FEB 28 – MAR 2</text><text x="158" y="336" class="nump">12</text><text x="170" y="336" class="hubp">METHVEN</text><text x="278" y="336" text-anchor="end" class="dtp">MAR 3</text><text x="158" y="346" class="nump">13</text><text x="170" y="346" class="hubp">MT SOMERS</text><text x="278" y="346" text-anchor="end" class="dtp">MAR 4–6</text><text x="158" y="356" class="nump">14</text><text x="170" y="356" class="hubp">HAKATERE</text><text x="278" y="356" text-anchor="end" class="dtp">MAR 7–9</text><text x="158" y="366" class="nump">15</text><text x="170" y="366" class="hubp">GERALDINE</text><text x="278" y="366" text-anchor="end" class="dtp">MAR 10–12</text>
<line x1="22" y1="382" x2="278" y2="382" class="rulep"/>
<text x="150" y="394" text-anchor="middle" class="footp">GOOD COMPANY · SHARED ADVENTURE · FREEDOM TO ROAM</text>
</svg>